<svg data-v-423bf9ae="" xmlns="http://www.w3.org/2000/svg" viewBox="0 0 70.05908554331259 60" class="font"><!----><!----><!----><g data-v-423bf9ae="" id="783a6a8c-eb28-4972-9da5-3cd801823db2" fill="white" transform="matrix(4.431314323708314,0,0,4.431314323708314,-5.805020882341559,-18.833085875760332)"><path d="M3.99 4.25L7.29 4.25L7.29 4.25Q10.04 4.25 10.04 5.81L10.04 5.81L10.04 5.81Q10.04 7.29 8.16 8.54L8.16 8.54L8.16 8.54Q7.49 9.00 6.68 9.35L6.68 9.35L6.68 9.35Q7.03 9.51 7.24 9.74L7.24 9.74L7.24 9.74Q7.44 9.97 7.55 10.14L7.55 10.14L7.55 10.14Q7.66 10.30 7.77 10.47L7.77 10.47L9.10 12.44L9.10 12.44Q9.18 12.56 9.27 12.69L9.27 12.69L9.27 12.69Q9.35 12.82 9.45 12.93L9.45 12.93L9.45 12.93Q9.69 13.17 9.91 13.17L9.91 13.17L9.91 13.17Q10.26 13.17 10.66 12.95L10.66 12.95L10.66 12.95Q9.95 13.73 8.98 14.02L8.98 14.02L8.98 14.02Q8.65 14.12 8.44 14.12L8.44 14.12L8.44 14.12Q8.22 14.12 8.12 14.07L8.12 14.07L8.12 14.07Q8.03 14.02 7.96 13.94L7.96 13.94L7.96 13.94Q7.88 13.86 7.82 13.77L7.82 13.77L7.82 13.77Q7.77 13.68 7.70 13.59L7.70 13.59L6.34 11.57L6.34 11.57Q6.08 11.19 5.89 10.90L5.89 10.90L5.89 10.90Q5.70 10.62 5.48 10.42L5.48 10.42L5.48 10.42Q5.03 10.05 4.12 10.05L4.12 10.05L3.79 11.43L3.79 11.43Q3.63 12.11 3.52 12.33L3.52 12.33L3.52 12.33Q3.34 12.71 2.91 13.15L2.91 13.15L5.10 13.15L5.10 13.15Q4.97 13.18 4.55 13.49L4.55 13.49L4.55 13.49Q3.75 14.08 3.55 14.08L3.55 14.08L1.31 14.08L1.31 14.08Q1.99 13.49 2.23 12.45L2.23 12.45L3.92 5.17L2.45 5.17L2.45 5.17Q3.84 4.25 3.99 4.25L3.99 4.25ZM7.30 8.78L7.30 8.78Q7.70 8.58 7.99 8.23L7.99 8.23L7.99 8.23Q8.29 7.88 8.38 7.45L8.38 7.45L8.38 7.45Q8.48 7.03 8.48 6.76L8.48 6.76L8.48 6.76Q8.48 6.49 8.37 6.24L8.37 6.24L8.37 6.24Q8.26 6.00 8.09 5.81L8.09 5.81L8.09 5.81Q7.91 5.63 7.67 5.51L7.67 5.51L7.67 5.51Q7.44 5.39 7.18 5.31L7.18 5.31L7.18 5.31Q6.70 5.17 6.10 5.17L6.10 5.17L5.25 5.17L4.34 9.09L5.41 9.09L5.41 9.09Q6.64 9.09 7.30 8.78L7.30 8.78ZM13.74 5.17L12.46 5.17L12.46 5.17Q13.86 4.25 14.01 4.25L14.01 4.25L17.12 4.25L17.12 4.25Q16.93 4.31 16.53 4.61L16.53 4.61L16.53 4.61Q16.12 4.92 15.92 5.05L15.92 5.05L15.92 5.05Q15.72 5.17 15.58 5.17L15.58 5.17L15.07 5.17L15.07 5.17Q14.64 7.03 14.21 8.87L14.21 8.87L14.21 8.87Q13.78 10.70 13.35 12.56L13.35 12.56L13.35 12.56Q12.91 14.42 11.29 16.05L11.29 16.05L11.29 16.05Q10.22 17.13 9.00 17.57L9.00 17.57L9.00 17.57Q8.37 17.79 7.74 17.79L7.74 17.79L7.74 17.79Q7.44 17.79 7.03 17.64L7.03 17.64L7.03 17.64Q6.63 17.48 6.48 17.39L6.48 17.39L6.48 17.39Q6.14 17.19 6.14 17.00L6.14 17.00L6.14 17.00Q6.14 16.70 7.85 15.78L7.85 15.78L7.85 15.78Q8.03 15.68 8.10 15.65L8.10 15.65L8.10 15.65Q7.65 15.95 7.65 16.08L7.65 16.08L7.65 16.08Q7.65 16.16 7.94 16.35L7.94 16.35L7.94 16.35Q8.22 16.55 8.44 16.65L8.44 16.65L8.44 16.65Q8.91 16.87 9.32 16.87L9.32 16.87L9.32 16.87Q9.73 16.87 10.04 16.71L10.04 16.71L10.04 16.71Q10.36 16.54 10.61 16.27L10.61 16.27L10.61 16.27Q10.86 16.00 11.05 15.64L11.05 15.64L11.05 15.64Q11.25 15.29 11.39 14.92L11.39 14.92L11.39 14.92Q11.58 14.41 11.81 13.49L11.81 13.49L13.74 5.17Z"></path></g><!----><!----></svg>