<?xml version="1.0" standalone="no"?>
<!DOCTYPE svg PUBLIC "-//W3C//DTD SVG 20010904//EN"
 "http://www.w3.org/TR/2001/REC-SVG-20010904/DTD/svg10.dtd">
<svg version="1.0" xmlns="http://www.w3.org/2000/svg"
 width="1120.000000pt" height="1120.000000pt" viewBox="0 0 1120.000000 1120.000000"
 preserveAspectRatio="xMidYMid meet">
<metadata>
Created by potrace 1.11, written by Peter Selinger 2001-2013
</metadata>
<g transform="translate(0.000000,1120.000000) scale(0.100000,-0.100000)"
fill="#000000" stroke="none">
<path d="M1820 10363 c-52 -24 -271 -148 -328 -185 -15 -10 -36 -22 -47 -28
-11 -5 -54 -33 -95 -60 -41 -28 -83 -53 -92 -56 -10 -4 -18 -10 -18 -15 0 -5
-5 -9 -10 -9 -6 0 -71 -40 -146 -90 -75 -49 -140 -90 -145 -90 -4 0 -12 -6
-16 -13 -4 -6 -19 -18 -33 -25 -14 -7 -37 -23 -52 -35 l-27 -22 42 0 c23 1 48
4 55 9 6 4 12 4 12 -1 0 -4 38 -8 85 -8 47 0 85 4 85 8 0 5 5 5 10 2 16 -10
110 -12 110 -3 0 5 8 5 17 -1 10 -5 26 -5 40 0 14 5 23 5 23 -1 0 -8 38 -5 68
5 6 2 12 1 12 -3 0 -4 45 -7 100 -7 55 0 100 4 100 8 0 5 4 6 9 3 16 -10 111
-13 111 -4 0 5 5 6 11 2 6 -3 42 -6 79 -6 73 0 73 1 56 -56 -3 -9 -8 -30 -11
-47 -3 -16 -11 -54 -19 -82 -8 -29 -12 -53 -10 -53 3 0 0 -8 -5 -19 -6 -10
-13 -33 -16 -52 -3 -19 -17 -81 -31 -139 -14 -58 -27 -118 -30 -135 -3 -16
-10 -48 -16 -70 -6 -22 -12 -49 -13 -60 -2 -11 -8 -33 -15 -50 -6 -16 -11 -31
-10 -33 5 -8 -13 -83 -21 -88 -5 -3 -7 -9 -4 -14 3 -5 -6 -55 -20 -112 -14
-57 -28 -112 -30 -123 -3 -11 -12 -51 -21 -90 -8 -38 -18 -81 -20 -95 -3 -14
-8 -34 -11 -45 -4 -11 -8 -27 -9 -35 -8 -41 -14 -69 -24 -110 -14 -54 -19 -74
-25 -101 -2 -11 -6 -28 -9 -37 -3 -9 -8 -30 -10 -47 -3 -16 -10 -45 -15 -63
-5 -18 -10 -35 -10 -37 -1 -3 -2 -7 -2 -10 -1 -3 -2 -8 -3 -12 -1 -5 -6 -28
-11 -53 -10 -53 -12 -59 -14 -62 -2 -3 -5 -15 -15 -63 -1 -5 -4 -14 -7 -20 -4
-5 -5 -18 -4 -27 2 -10 -1 -18 -6 -18 -6 0 -8 -4 -5 -8 3 -5 -4 -42 -14 -83
-10 -41 -21 -85 -24 -99 -5 -30 -42 -188 -57 -245 -5 -22 -11 -49 -14 -60 -2
-11 -15 -69 -30 -130 -14 -60 -28 -121 -31 -135 -6 -31 -17 -82 -20 -95 -13
-44 -25 -96 -30 -124 -3 -19 -10 -45 -15 -58 -5 -13 -8 -27 -8 -31 1 -4 0 -10
-1 -14 -6 -18 -22 -103 -22 -115 0 -5 -3 -12 -8 -18 -4 -5 -10 -26 -14 -45 -3
-19 -9 -46 -12 -60 -3 -14 -7 -34 -9 -45 -2 -11 -4 -21 -5 -22 -3 -4 -7 -19
-37 -153 -2 -8 -5 -26 -8 -40 -3 -14 -14 -61 -25 -105 -25 -98 -33 -135 -34
-157 0 -10 -3 -18 -6 -18 -3 0 -6 -8 -7 -18 -1 -11 -11 -59 -23 -108 -12 -49
-23 -98 -25 -109 -2 -11 -10 -47 -19 -81 -8 -33 -18 -71 -20 -85 -2 -13 -5
-24 -6 -24 -1 0 -3 -8 -5 -19 -8 -43 -27 -122 -32 -136 -4 -8 -5 -18 -5 -22 1
-4 -5 -34 -13 -65 -9 -32 -18 -74 -21 -93 -3 -19 -10 -43 -15 -52 -5 -10 -8
-18 -5 -18 2 0 -2 -24 -10 -53 -8 -28 -16 -65 -19 -82 -3 -16 -8 -38 -11 -47
-3 -9 -7 -25 -9 -35 -4 -22 -34 -151 -40 -176 -2 -10 -7 -28 -11 -40 -4 -12
-8 -29 -9 -37 -3 -25 -36 -144 -43 -155 -4 -5 -8 -17 -9 -26 -5 -30 -71 -196
-116 -290 -104 -215 -236 -399 -399 -558 -32 -30 -58 -58 -58 -61 0 -8 1571
-4 1614 4 37 7 149 59 176 82 8 7 17 12 20 12 3 -1 24 11 47 25 24 15 47 27
52 27 5 0 11 3 13 8 2 4 42 33 89 64 47 30 93 63 102 73 9 9 17 13 17 8 0 -4
6 -1 13 7 7 8 20 20 29 25 9 6 85 59 168 119 83 59 189 129 235 156 l85 47
-738 -1 c-406 -1 -750 1 -765 4 -26 5 -26 5 31 65 61 65 107 119 177 210 11
14 25 31 30 38 14 17 87 128 101 152 51 92 74 140 74 151 0 8 4 14 10 14 5 0
9 3 8 8 -2 4 5 27 14 52 23 62 72 221 74 243 1 9 2 18 4 20 1 1 3 9 5 17 10
40 15 61 35 135 11 44 22 89 24 100 2 11 13 56 24 100 12 44 24 94 27 110 8
39 13 60 15 60 3 0 10 39 13 67 1 16 5 28 8 28 3 0 6 6 6 13 0 6 9 50 21 97
20 82 92 385 96 405 1 6 6 21 11 35 4 14 8 34 9 45 1 12 8 19 19 19 9 -1 17 2
17 7 0 4 9 6 21 4 11 -2 68 -7 127 -10 59 -3 116 -7 127 -9 20 -4 112 -18 130
-21 33 -4 94 -18 115 -26 14 -5 34 -10 45 -12 11 -2 27 -7 35 -10 8 -4 41 -16
73 -28 33 -11 86 -36 119 -55 33 -19 62 -34 64 -34 17 0 204 -184 267 -263 26
-31 70 -92 98 -135 29 -42 56 -78 61 -80 4 -2 8 -8 8 -13 0 -6 64 -104 143
-219 78 -115 146 -219 152 -230 5 -11 13 -20 17 -20 5 0 8 -6 8 -14 0 -8 3
-16 8 -18 7 -3 37 -47 255 -373 66 -99 123 -182 126 -185 3 -3 12 -17 20 -32
8 -16 18 -28 23 -28 4 0 8 -4 8 -10 0 -11 62 -103 73 -108 4 -2 7 -9 7 -17 0
-7 7 -18 15 -25 9 -7 23 -28 31 -46 9 -19 20 -34 25 -34 5 0 9 -6 9 -14 0 -8
3 -16 8 -18 11 -5 52 -66 52 -78 0 -5 4 -10 8 -10 5 0 15 -12 23 -27 8 -16 16
-30 19 -33 3 -3 46 -66 95 -140 50 -74 93 -137 96 -140 4 -3 32 -44 63 -92 60
-94 173 -215 221 -237 17 -7 37 -17 46 -22 14 -6 142 -22 174 -21 54 2 179 13
185 17 3 2 22 7 40 10 18 3 65 15 104 26 39 11 78 22 86 24 47 10 260 95 350
138 58 28 107 51 110 52 3 0 16 8 30 16 14 9 68 42 120 74 52 33 97 63 98 67
2 4 8 8 14 8 5 0 31 17 56 38 26 20 51 40 57 44 5 4 22 18 36 30 15 13 46 39
69 58 51 42 220 208 220 215 0 3 -10 0 -22 -7 -13 -7 -25 -13 -28 -14 -3 -1
-15 -5 -27 -9 -13 -4 -23 -10 -23 -14 0 -5 -67 -30 -102 -37 -5 -1 -11 -3 -15
-4 -5 -1 -11 -2 -15 -1 -5 0 -8 -3 -8 -8 0 -4 -28 -14 -62 -20 -35 -7 -79 -16
-98 -20 -38 -8 -162 -7 -196 2 -67 17 -176 87 -245 157 -33 34 -88 109 -172
235 -37 55 -70 105 -74 110 -5 6 -50 73 -102 150 -52 76 -109 161 -127 187
-19 26 -34 52 -34 57 0 5 -3 11 -8 13 -6 3 -95 129 -142 203 -29 46 -315 470
-320 475 -3 3 -19 25 -35 50 -17 25 -33 47 -37 48 -5 2 -8 8 -8 13 0 11 -42
72 -52 77 -5 2 -8 8 -8 12 0 5 -27 48 -60 95 -33 47 -60 88 -60 90 0 10 -191
280 -248 350 -134 165 -255 264 -431 350 l-45 22 40 18 c95 43 466 228 539
268 44 25 98 55 120 67 22 12 42 25 45 29 3 3 21 15 40 25 39 21 222 137 230
146 3 3 55 39 115 79 61 41 115 79 120 83 6 5 34 26 62 48 29 21 59 44 67 52
7 7 26 22 41 32 14 11 34 27 44 35 10 9 40 34 66 56 84 70 291 277 360 360 90
109 87 104 125 160 18 28 37 52 40 55 3 3 30 44 59 92 70 117 143 274 176 378
15 47 30 92 33 100 6 17 6 17 22 93 11 57 13 69 27 177 19 160 -3 373 -53 506
-25 67 -95 194 -124 225 -89 94 -112 117 -134 138 -39 35 -187 131 -203 131
-7 0 -13 5 -13 10 0 6 -5 10 -11 10 -5 0 -36 12 -67 26 -98 46 -312 114 -407
130 -46 9 -71 13 -90 17 -35 8 -131 23 -205 32 -14 1 -59 6 -100 10 -41 4 -93
9 -115 12 -22 4 -656 8 -1410 9 l-1370 3 -55 -26z m1053 -627 c35 0 69 4 75 8
7 4 12 4 12 -1 0 -4 18 -8 40 -8 22 0 40 5 40 10 0 7 3 7 8 0 4 -5 39 -10 77
-10 39 0 73 5 77 10 5 6 8 6 8 -2 0 -11 34 -10 68 2 6 2 12 1 12 -3 0 -4 69
-8 153 -8 145 -2 251 -7 327 -18 19 -2 53 -7 75 -10 98 -13 121 -17 137 -22 9
-2 25 -6 35 -8 232 -46 572 -200 710 -323 17 -15 40 -35 50 -44 62 -54 165
-203 216 -312 85 -182 105 -389 62 -642 -3 -16 -8 -46 -11 -65 -2 -19 -7 -43
-10 -52 -3 -10 -7 -30 -10 -45 -67 -376 -299 -711 -649 -935 -78 -50 -216
-118 -240 -118 -8 0 -15 -5 -15 -10 0 -6 -3 -9 -7 -8 -5 1 -33 -6 -63 -15 -30
-9 -58 -17 -62 -17 -4 -1 -23 -7 -42 -15 -18 -8 -36 -12 -39 -9 -3 3 -12 2
-19 -2 -13 -8 -20 -10 -63 -18 -11 -2 -45 -9 -75 -15 -30 -7 -71 -14 -90 -16
-19 -3 -46 -7 -60 -9 -14 -3 -52 -8 -85 -11 -33 -3 -76 -8 -96 -11 -93 -12
-222 -16 -726 -19 l-542 -3 5 32 c8 49 10 60 17 81 3 11 8 31 11 45 2 14 9 45
15 70 17 68 21 83 25 105 2 11 9 38 14 60 6 22 14 52 17 68 13 66 16 81 20 88
3 4 7 26 10 49 3 24 8 47 11 52 3 4 7 21 10 36 3 15 7 34 11 42 3 8 7 24 8 35
4 25 14 74 21 97 3 9 7 25 9 35 5 26 56 245 61 263 3 12 23 95 23 95 -5 0 17
87 22 91 5 3 7 9 5 13 -3 4 -1 25 5 46 6 20 12 45 14 54 2 9 20 86 40 171 20
85 38 164 40 175 7 34 14 66 20 85 7 23 15 58 20 90 2 14 12 54 21 90 9 36 17
70 18 75 1 6 8 37 15 70 7 33 15 67 18 75 2 8 4 16 4 17 1 2 7 31 16 65 19 82
22 94 29 121 3 12 7 33 9 47 2 14 4 25 5 25 1 0 3 7 5 15 13 65 46 194 52 203
4 6 8 7 10 2 2 -6 31 -10 66 -9z"/>
<path d="M8915 10360 c-33 -16 -65 -30 -72 -30 -6 0 -13 -3 -15 -7 -1 -5 -29
-21 -60 -38 -32 -16 -58 -33 -58 -37 0 -4 -9 -8 -20 -8 -11 0 -20 -4 -20 -9 0
-5 -15 -16 -32 -26 -74 -38 -312 -187 -316 -197 -2 -5 -8 -8 -13 -8 -5 0 -43
-22 -85 -50 -41 -27 -77 -50 -79 -50 -8 0 -100 -65 -103 -72 -2 -5 -7 -8 -12
-8 -10 0 -121 -72 -117 -76 7 -8 217 -9 217 -1 0 4 5 5 10 2 15 -9 110 -12
110 -3 0 4 6 5 14 2 23 -9 186 -10 186 -1 0 5 5 5 10 2 15 -9 110 -12 110 -3
0 4 6 5 14 2 21 -8 186 -10 186 -2 0 3 9 4 19 1 16 -4 18 -10 11 -27 -4 -13
-11 -36 -14 -52 -11 -60 -17 -90 -23 -109 -4 -11 -7 -27 -9 -35 -1 -8 -9 -46
-18 -85 -64 -268 -88 -373 -91 -395 -2 -14 -4 -26 -6 -27 -1 -2 -3 -7 -4 -13
-1 -5 -3 -11 -5 -12 -1 -2 -3 -12 -5 -23 -2 -11 -6 -31 -9 -45 -4 -14 -9 -41
-12 -60 -3 -19 -9 -39 -12 -45 -3 -5 -7 -16 -8 -25 0 -8 -8 -44 -17 -80 -20
-79 -74 -315 -81 -350 -2 -14 -14 -65 -27 -115 -12 -49 -23 -99 -25 -110 -2
-11 -10 -47 -19 -80 -8 -33 -17 -73 -20 -89 -3 -16 -8 -32 -10 -36 -2 -4 -7
-21 -10 -38 -3 -17 -19 -91 -36 -164 -17 -73 -33 -144 -36 -158 -8 -40 -9 -44
-16 -65 -3 -11 -8 -31 -11 -45 -2 -14 -16 -74 -30 -134 -14 -59 -28 -120 -31
-135 -3 -14 -9 -41 -14 -58 -5 -18 -8 -33 -5 -33 3 0 0 -8 -5 -17 -5 -10 -12
-35 -15 -57 -4 -21 -8 -42 -11 -46 -2 -3 -7 -22 -10 -41 -3 -19 -8 -42 -11
-51 -3 -9 -7 -25 -9 -35 -2 -10 -22 -99 -46 -198 -23 -99 -43 -187 -44 -195
-1 -8 -4 -24 -8 -35 -3 -11 -8 -31 -11 -45 -2 -14 -12 -56 -21 -95 -9 -38 -19
-81 -21 -95 -3 -14 -10 -43 -16 -65 -6 -22 -13 -46 -14 -54 -1 -7 -8 -34 -14
-60 -6 -25 -13 -55 -15 -66 -2 -11 -9 -40 -16 -65 -6 -25 -13 -56 -16 -70 -8
-38 -11 -55 -13 -60 -1 -3 -2 -8 -2 -11 1 -4 -3 -22 -9 -40 -5 -19 -11 -45
-14 -59 -2 -14 -16 -72 -31 -130 -14 -58 -28 -116 -30 -130 -3 -14 -7 -33 -10
-42 -7 -22 -14 -57 -19 -90 -2 -15 -6 -31 -9 -36 -5 -8 -8 -21 -21 -89 -4 -16
-17 -75 -31 -133 -14 -58 -28 -116 -30 -130 -3 -14 -11 -50 -19 -80 -8 -30
-17 -68 -20 -85 -8 -40 -13 -60 -15 -60 -1 0 -3 -9 -5 -20 -2 -11 -6 -31 -10
-45 -4 -14 -8 -36 -10 -50 -2 -14 -4 -25 -5 -25 -3 0 -17 -63 -25 -110 -3 -16
-10 -43 -14 -60 -9 -29 -48 -200 -56 -240 -2 -11 -4 -20 -5 -20 -2 0 -9 -27
-15 -65 -3 -19 -8 -42 -11 -50 -3 -8 -8 -24 -10 -35 -2 -11 -15 -65 -29 -120
-15 -55 -30 -116 -35 -135 -4 -19 -16 -62 -25 -95 -16 -57 -19 -70 -29 -112
-2 -10 -9 -31 -16 -48 -6 -16 -11 -31 -11 -32 1 -2 1 -4 0 -5 0 -2 -2 -10 -4
-18 -1 -8 -8 -35 -15 -60 -7 -25 -12 -47 -12 -50 0 -3 -5 -14 -11 -25 -6 -11
-10 -23 -9 -27 1 -3 -14 -51 -33 -107 -18 -56 -31 -101 -27 -101 4 0 3 -4 -3
-8 -12 -8 -45 -102 -45 -126 0 -9 -4 -16 -10 -16 -5 0 -10 -6 -10 -14 0 -29
-198 -457 -220 -476 -3 -3 -14 -21 -24 -40 -41 -83 -142 -238 -191 -294 -14
-16 -25 -32 -25 -36 0 -3 -44 -51 -97 -107 -95 -97 -274 -243 -300 -243 -7 0
-13 -4 -13 -8 0 -14 -189 -99 -260 -117 -90 -24 -101 -26 -136 -29 -16 -1 -34
-5 -40 -8 -23 -13 -350 2 -374 17 -4 3 -23 7 -41 9 -47 6 -225 64 -274 89 -22
11 -41 19 -43 18 -5 -4 -189 92 -218 114 -17 13 -34 21 -38 18 -3 -4 -6 -1 -6
5 0 7 -7 12 -15 12 -9 0 -18 7 -21 15 -4 8 -10 15 -15 15 -12 0 -117 69 -149
98 -14 12 -27 22 -31 22 -10 0 -76 65 -93 91 -11 18 -15 36 -10 53 8 35 123
148 213 211 39 27 71 50 71 52 0 4 -35 -10 -47 -19 -6 -5 -40 -24 -75 -42 -92
-48 -182 -96 -273 -148 -44 -24 -88 -48 -97 -51 -10 -4 -18 -11 -18 -17 0 -6
-4 -9 -9 -6 -5 3 -14 -1 -21 -9 -7 -8 -16 -15 -21 -15 -4 0 -49 -25 -100 -55
-50 -30 -95 -55 -100 -55 -5 0 -9 -4 -9 -9 0 -5 -13 -14 -30 -21 -16 -7 -30
-17 -30 -23 0 -6 -3 -7 -7 -4 -3 4 -17 -3 -30 -15 -13 -12 -23 -17 -23 -12 0
5 -4 4 -8 -1 -4 -6 -43 -35 -87 -64 -44 -30 -92 -64 -107 -75 -87 -68 -108
-86 -154 -129 -65 -60 -101 -112 -109 -155 -8 -48 28 -123 85 -176 100 -93
214 -154 535 -287 17 -7 38 -13 47 -14 10 -1 24 -8 33 -15 8 -7 15 -9 15 -6 0
4 8 2 18 -3 9 -5 31 -12 47 -15 17 -3 66 -15 110 -27 134 -36 381 -34 660 5
17 3 30 5 30 6 0 1 14 3 30 6 37 5 70 12 70 14 0 2 15 5 55 13 65 13 277 76
325 97 58 26 95 38 95 32 0 -4 4 -1 9 7 5 8 17 15 28 16 38 3 327 148 484 242
63 37 119 70 124 72 6 2 33 21 62 43 29 21 57 38 63 38 5 0 10 3 10 8 0 4 18
18 40 32 22 14 40 28 40 32 0 4 8 9 18 12 9 4 32 20 51 36 18 17 37 30 40 30
4 0 27 18 51 40 24 22 47 40 50 40 3 0 24 17 46 38 23 20 67 59 99 87 176 152
426 405 610 620 28 32 55 63 60 69 9 10 62 76 105 130 8 10 23 27 33 38 9 10
17 21 17 26 0 4 13 21 28 37 15 17 36 44 46 60 11 17 25 34 33 38 7 4 13 13
13 19 0 5 14 27 30 48 17 21 30 42 30 48 0 6 4 12 8 14 10 4 69 90 70 102 0 5
4 12 9 15 11 8 79 116 142 226 28 50 56 97 61 105 5 8 24 44 42 80 18 36 36
67 41 68 4 2 5 7 2 12 -3 5 2 16 11 24 8 9 13 16 10 16 -3 0 7 26 23 57 33 67
59 124 93 208 36 88 41 99 43 110 2 6 13 35 25 65 12 30 31 84 42 120 28 89
29 94 30 100 0 3 5 16 10 30 11 29 18 53 25 92 3 16 8 28 12 28 4 0 7 8 7 18
0 9 19 94 42 187 22 94 43 181 46 195 9 43 15 71 20 88 3 9 8 32 11 51 3 19 8
37 10 41 2 4 7 20 9 37 3 17 29 127 57 244 28 118 52 223 53 234 2 11 8 38 14
60 6 22 13 51 16 65 2 14 5 25 6 25 1 0 3 10 6 22 2 12 13 62 24 110 11 48 23
99 26 113 3 14 12 52 21 85 8 33 17 69 19 80 7 36 18 90 20 98 1 4 3 8 4 10 1
1 4 11 6 22 1 11 10 48 18 82 9 34 18 77 21 94 3 18 8 35 10 39 2 3 6 17 9 31
2 13 16 73 30 132 15 59 28 118 30 130 3 12 5 22 6 22 1 0 3 7 5 15 2 13 27
126 30 140 1 3 11 50 24 105 12 55 26 114 31 130 5 17 11 41 14 55 5 23 9 41
21 90 15 59 36 153 41 180 3 14 10 43 16 65 5 22 12 49 14 60 4 22 8 37 25
105 6 25 13 56 15 70 3 14 10 43 16 65 5 22 12 47 13 55 8 35 36 156 39 170 5
18 23 94 30 130 3 14 10 43 16 65 5 22 13 56 16 75 3 19 8 38 11 42 2 5 6 18
8 30 3 13 10 48 17 78 7 30 13 60 13 65 0 6 4 15 8 21 4 7 8 28 9 48 2 20 6
36 9 36 3 0 6 6 6 13 2 32 16 94 26 112 6 11 9 21 8 23 -4 4 11 86 17 97 3 5
7 16 8 25 1 8 5 26 8 40 3 14 8 34 10 45 9 38 114 494 122 528 2 9 6 27 9 39
4 20 29 126 44 193 6 26 12 30 42 30 19 0 40 4 47 8 6 5 12 5 12 0 0 -12 74
-10 82 2 5 7 8 7 8 0 0 -6 39 -9 102 -8 106 2 139 6 182 23 13 5 27 6 30 3 3
-4 6 -1 6 5 0 7 5 12 11 12 16 0 161 88 200 121 19 16 39 29 46 29 6 0 13 3
15 8 4 9 115 92 124 92 4 0 14 8 23 18 9 10 32 29 51 42 19 13 38 29 42 35 4
5 8 7 8 3 0 -5 9 0 19 10 33 29 45 38 137 98 49 33 91 62 94 65 3 3 43 24 89
47 l83 42 -1108 0 -1109 0 -60 -30z"/>
</g>
</svg>
